<svg width="18" height="14" viewBox="0 0 18 14" fill="none" xmlns="http://www.w3.org/2000/svg">
<path fill-rule="evenodd" clip-rule="evenodd" d="M18 1.65598C17.3375 1.937 16.6266 2.12758 15.8797 2.21266C16.6424 1.7755 17.2261 1.0821 17.5028 0.258405C16.7874 0.663244 15.9978 0.957209 15.1565 1.11657C14.4827 0.428545 13.5244 0 12.4615 0C10.4222 0 8.76879 1.58278 8.76879 3.5338C8.76879 3.81051 8.80141 4.08076 8.86441 4.3392C5.796 4.19167 3.07515 2.7844 1.25412 0.646013C0.935794 1.16716 0.754706 1.7744 0.754706 2.42261C0.754706 3.64901 1.40709 4.73111 2.39691 5.3642C1.79176 5.34483 1.22262 5.18548 0.724353 4.9206V4.96474C0.724353 6.67673 1.99762 8.10553 3.68591 8.43072C3.37659 8.5104 3.05041 8.55454 2.71297 8.55454C2.47453 8.55454 2.24394 8.53193 2.01785 8.48886C2.488 9.89398 3.85126 10.9158 5.46647 10.9438C4.20332 11.8913 2.61062 12.4544 0.880706 12.4544C0.582647 12.4544 0.289059 12.4372 0 12.406C1.63432 13.4106 3.57459 13.9963 5.65994 13.9963C12.4525 13.9963 16.1655 8.61054 16.1655 3.93974L16.1531 3.48214C16.8786 2.98681 17.5062 2.36447 18 1.65598Z" fill="black"/>
</svg>
